g Cube.010
v -0.6714785 5.960464E-08 1.161225
v -0.7714784 5.960464E-08 1.261225
v -0.7714784 -5.960464E-08 -1.261225
v -0.6714785 -5.960464E-08 -1.161225
v 0.6714785 5.960464E-08 1.161225
v 0.7714785 -5.960464E-08 -1.261225
v 0.7714785 5.960464E-08 1.261225
v 0.6714785 -5.960464E-08 -1.161225
vn 0 1 0
vn 0 1 0
vn 0 1 0
vn 0 1 0
vn 0 1 0
vn 0 1 0
vn 0 1 0
vn 0 1 0
g Cube.010_0
f 3/3/3 2/2/2 1/1/1
f 4/4/4 3/3/3 1/1/1
f 1/1/1 2/2/2 5/5/5
f 6/6/6 3/3/3 4/4/4
f 2/2/2 7/7/7 5/5/5
f 8/8/8 6/6/6 4/4/4
f 5/5/5 7/7/7 8/8/8
f 7/7/7 6/6/6 8/8/8
