g Cube.005
v -4.557392 0.5253795 8.492336
v -4.65739 0.5253795 8.59234
v -4.65739 0.5253794 5.719891
v -2.814435 0.5253795 8.492336
v -2.764435 0.5253795 8.59234
v -4.557392 0.5253794 5.769891
v -2.814435 0.5253795 5.769891
v -2.764435 0.5253795 5.719891
v -2.814435 0.5253795 5.66989
v -2.814435 0.5253794 2.92245
v -4.557392 0.5253794 5.66989
v -4.65739 0.5253794 2.87245
v -4.557392 0.5253794 2.92245
v -2.764435 0.5253794 2.87245
v -2.814435 0.5253794 2.82245
v -2.814435 0.5253793 0.09999999
v -4.557392 0.5253794 2.82245
v -4.65739 0.5253793 0
v -4.557392 0.5253793 0.09999999
v -2.764435 0.5253793 0
v -2.714435 0.5253795 8.492336
v -0.9714784 0.5253795 8.492336
v -0.9214784 0.5253795 8.59234
v -2.714435 0.5253795 5.769891
v -0.9714784 0.5253795 5.769891
v -0.9214784 0.5253795 5.719891
v -0.9714784 0.5253795 5.66989
v -0.9714785 0.5253794 2.92245
v -2.714435 0.5253795 5.66989
v -2.714435 0.5253794 2.92245
v -0.9214785 0.5253794 2.87245
v -0.9714785 0.5253794 2.82245
v -0.9714785 0.5253793 0.1
v -2.714435 0.5253794 2.82245
v -2.714435 0.5253793 0.1
v -0.9214785 0.5253793 0
v -0.8714783 0.5253795 8.492336
v 0.8714785 0.5253795 8.492336
v 0.9214785 0.5253795 8.59234
v -0.8714784 0.5253795 5.769891
v 0.8714784 0.5253795 5.769891
v 0.9214784 0.5253795 5.719891
v 0.8714784 0.5253795 5.66989
v 0.8714783 0.5253794 2.92245
v -0.8714784 0.5253795 5.66989
v -0.8714785 0.5253794 2.92245
v 0.9214784 0.5253794 2.87245
v 0.8714783 0.5253794 2.82245
v 0.8714783 0.5253793 0.1
v -0.8714785 0.5253794 2.82245
v -0.8714785 0.5253793 0.1
v 0.9214784 0.5253793 0
v 0.9714785 0.5253795 8.492336
v 2.714435 0.5253795 8.492336
v 2.764435 0.5253795 8.59234
v 0.9714784 0.5253795 5.769891
v 2.714435 0.5253795 5.769891
v 2.764435 0.5253795 5.719891
v 2.714435 0.5253795 5.66989
v 2.714435 0.5253794 2.92245
v 0.9714784 0.5253795 5.66989
v 0.9714784 0.5253794 2.92245
v 2.764435 0.5253794 2.87245
v 2.714435 0.5253794 2.82245
v 2.714435 0.5253793 0.1
v 0.9714784 0.5253794 2.82245
v 0.9714784 0.5253793 0.1
v 2.764435 0.5253793 0
v 2.814435 0.5253795 8.492336
v 4.557392 0.5253795 8.492336
v 4.65739 0.5253795 8.59234
v 4.557392 0.5253795 5.769891
v 4.65739 0.5253795 5.719891
v 2.814435 0.5253795 5.769891
v 4.557392 0.5253795 5.66989
v 4.557392 0.5253794 2.92245
v 2.814435 0.5253795 5.66989
v 4.65739 0.5253794 2.87245
v 2.814435 0.5253794 2.92245
v 2.814435 0.5253794 2.82245
v 2.814435 0.5253793 0.09999999
v 4.557392 0.5253794 2.82245
v 4.65739 0.5253793 0
v 4.557392 0.5253793 0.1
vn 0 1 0
vn 0 1 0
vn 0 1 0
vn 0 1 0
vn 0 1 0
vn 0 1 0
vn 0 1 0
vn 0 1 0
vn 0 1 0
vn 0 1 0
vn 0 1 0
vn 0 1 0
vn 0 1 0
vn 0 1 0
vn 8.34465E-07 1 0
vn 0 1 0
vn 0 1 0
vn 0 1 0
vn 0 1 0
vn 0 1 0
vn 0 1 0
vn 0 1 0
vn 0 1 0
vn 0 1 0
vn 0 1 0
vn 0 1 0
vn 0 1 0
vn 0 1 0
vn 0 1 0
vn 0 1 0
vn 0 1 0
vn 8.34465E-07 1 0
vn 0 1 0
vn -8.34465E-07 1 0
vn 0 1 0
vn 0 1 0
vn 0 1 0
vn 0 1 0
vn 0 1 0
vn 0 1 0
vn 0 1 0
vn 0 1 0
vn 0 1 0
vn 0 1 0
vn 0 1 0
vn 0 1 0
vn 0 1 0
vn 8.34465E-07 1 0
vn 0 1 0
vn -8.34465E-07 1 0
vn 0 1 0
vn 0 1 0
vn 0 1 0
vn 0 1 0
vn 0 1 0
vn 0 1 0
vn 0 1 0
vn 0 1 0
vn 0 1 0
vn 0 1 0
vn 0 1 0
vn 0 1 0
vn 8.34465E-07 1 0
vn 8.34465E-07 1 0
vn 0 1 0
vn -8.34465E-07 1 0
vn 0 1 0
vn 0 1 0
vn 0 1 0
vn 0 1 0
vn 0 1 0
vn 0 1 0
vn 0 1 0
vn 0 1 0
vn 0 1 0
vn 0 1 0
vn 0 1 0
vn 4.172325E-07 1 0
vn 0 1 0
vn -8.34465E-07 1 0
vn 0 1 0
vn 4.172325E-07 1 0
vn 4.172325E-07 1 0
vn 4.172325E-07 1 0
g Cube.005_0
f 3/3/3 2/2/2 1/1/1
f 1/1/1 2/2/2 4/4/4
f 2/2/2 5/5/5 4/4/4
f 6/6/6 3/3/3 1/1/1
f 4/4/4 5/5/5 7/7/7
f 7/7/7 8/8/8 6/6/6
f 8/8/8 3/3/3 6/6/6
f 5/5/5 8/8/8 7/7/7
f 3/3/3 8/8/8 9/9/9
f 9/9/9 8/8/8 10/10/10
f 11/11/11 3/3/3 9/9/9
f 12/12/12 3/3/3 11/11/11
f 13/13/13 12/12/12 11/11/11
f 10/10/10 14/14/14 13/13/13
f 8/8/8 14/14/14 10/10/10
f 14/14/14 12/12/12 13/13/13
f 12/12/12 14/14/14 15/15/15
f 15/15/15 14/14/14 16/16/16
f 17/17/17 12/12/12 15/15/15
f 18/18/18 12/12/12 17/17/17
f 19/19/19 18/18/18 17/17/17
f 20/20/20 18/18/18 19/19/19
f 16/16/16 20/20/20 19/19/19
f 14/14/14 20/20/20 16/16/16
f 8/8/8 5/5/5 21/21/21
f 21/21/21 5/5/5 22/22/22
f 5/5/5 23/23/23 22/22/22
f 24/24/24 8/8/8 21/21/21
f 22/22/22 23/23/23 25/25/25
f 25/25/25 26/26/26 24/24/24
f 26/26/26 8/8/8 24/24/24
f 23/23/23 26/26/26 25/25/25
f 8/8/8 26/26/26 27/27/27
f 27/27/27 26/26/26 28/28/28
f 29/29/29 8/8/8 27/27/27
f 14/14/14 8/8/8 29/29/29
f 30/30/30 14/14/14 29/29/29
f 28/28/28 31/31/31 30/30/30
f 26/26/26 31/31/31 28/28/28
f 31/31/31 14/14/14 30/30/30
f 14/14/14 31/31/31 32/32/32
f 32/32/32 31/31/31 33/33/33
f 34/34/34 14/14/14 32/32/32
f 20/20/20 14/14/14 34/34/34
f 35/35/35 20/20/20 34/34/34
f 36/36/36 20/20/20 35/35/35
f 33/33/33 36/36/36 35/35/35
f 31/31/31 36/36/36 33/33/33
f 26/26/26 23/23/23 37/37/37
f 37/37/37 23/23/23 38/38/38
f 23/23/23 39/39/39 38/38/38
f 40/40/40 26/26/26 37/37/37
f 38/38/38 39/39/39 41/41/41
f 41/41/41 42/42/42 40/40/40
f 42/42/42 26/26/26 40/40/40
f 39/39/39 42/42/42 41/41/41
f 26/26/26 42/42/42 43/43/43
f 43/43/43 42/42/42 44/44/44
f 45/45/45 26/26/26 43/43/43
f 31/31/31 26/26/26 45/45/45
f 46/46/46 31/31/31 45/45/45
f 44/44/44 47/47/47 46/46/46
f 42/42/42 47/47/47 44/44/44
f 47/47/47 31/31/31 46/46/46
f 31/31/31 47/47/47 48/48/48
f 48/48/48 47/47/47 49/49/49
f 50/50/50 31/31/31 48/48/48
f 36/36/36 31/31/31 50/50/50
f 51/51/51 36/36/36 50/50/50
f 52/52/52 36/36/36 51/51/51
f 49/49/49 52/52/52 51/51/51
f 47/47/47 52/52/52 49/49/49
f 42/42/42 39/39/39 53/53/53
f 53/53/53 39/39/39 54/54/54
f 39/39/39 55/55/55 54/54/54
f 56/56/56 42/42/42 53/53/53
f 54/54/54 55/55/55 57/57/57
f 57/57/57 58/58/58 56/56/56
f 58/58/58 42/42/42 56/56/56
f 55/55/55 58/58/58 57/57/57
f 42/42/42 58/58/58 59/59/59
f 59/59/59 58/58/58 60/60/60
f 61/61/61 42/42/42 59/59/59
f 47/47/47 42/42/42 61/61/61
f 62/62/62 47/47/47 61/61/61
f 60/60/60 63/63/63 62/62/62
f 58/58/58 63/63/63 60/60/60
f 63/63/63 47/47/47 62/62/62
f 47/47/47 63/63/63 64/64/64
f 64/64/64 63/63/63 65/65/65
f 66/66/66 47/47/47 64/64/64
f 52/52/52 47/47/47 66/66/66
f 67/67/67 52/52/52 66/66/66
f 68/68/68 52/52/52 67/67/67
f 65/65/65 68/68/68 67/67/67
f 63/63/63 68/68/68 65/65/65
f 58/58/58 55/55/55 69/69/69
f 69/69/69 55/55/55 70/70/70
f 55/55/55 71/71/71 70/70/70
f 70/70/70 71/71/71 72/72/72
f 71/71/71 73/73/73 72/72/72
f 74/74/74 58/58/58 69/69/69
f 72/72/72 73/73/73 74/74/74
f 73/73/73 58/58/58 74/74/74
f 58/58/58 73/73/73 75/75/75
f 75/75/75 73/73/73 76/76/76
f 77/77/77 58/58/58 75/75/75
f 63/63/63 58/58/58 77/77/77
f 73/73/73 78/78/78 76/76/76
f 79/79/79 63/63/63 77/77/77
f 76/76/76 78/78/78 79/79/79
f 78/78/78 63/63/63 79/79/79
f 68/68/68 63/63/63 80/80/80
f 81/81/81 68/68/68 80/80/80
f 80/80/80 63/63/63 82/82/82
f 63/63/63 78/78/78 82/82/82
f 83/83/83 68/68/68 81/81/81
f 82/82/82 78/78/78 84/84/84
f 84/84/84 83/83/83 81/81/81
f 78/78/78 83/83/83 84/84/84
